<svg width="14" height="18" viewBox="0 0 14 18" fill="none" xmlns="http://www.w3.org/2000/svg">
<path d="M1.64264 5.57257C1.40389 4.00007 2.51264 2.58757 4.20639 2.07007C4.50696 1.97818 4.83126 2.00433 5.11321 2.14322C5.39517 2.28211 5.61356 2.52327 5.72389 2.81757L6.26764 4.26757C6.35517 4.50084 6.371 4.75494 6.31309 4.99727C6.25519 5.23959 6.12618 5.45909 5.94264 5.62757L4.32514 7.10882C4.24541 7.18199 4.186 7.27457 4.1527 7.37753C4.1194 7.48049 4.11335 7.59033 4.13514 7.69632L4.15014 7.76132L4.18889 7.92382C4.39005 8.71338 4.69655 9.47227 5.10014 10.1801C5.53978 10.9322 6.08537 11.6171 6.72014 12.2138L6.77014 12.2588C6.85089 12.3305 6.94883 12.38 7.05442 12.4026C7.16001 12.4252 7.26965 12.42 7.37264 12.3876L9.46389 11.7288C9.70156 11.6542 9.95609 11.6523 10.1949 11.7233C10.4336 11.7944 10.6457 11.9352 10.8039 12.1276L11.7939 13.3288C12.2064 13.8288 12.1564 14.5638 11.6826 15.0051C10.3864 16.2138 8.60389 16.4613 7.36389 15.4651C5.84393 14.239 4.56258 12.7437 3.58389 11.0538C2.59725 9.36525 1.93947 7.50561 1.64264 5.57257ZM5.44639 7.77882L6.78639 6.54882C7.15369 6.21199 7.41193 5.77308 7.52797 5.28842C7.64402 4.80376 7.61256 4.29547 7.43764 3.82882L6.89514 2.37882C6.67307 1.78663 6.23356 1.3014 5.66616 1.022C5.09876 0.742595 4.44618 0.690051 3.84139 0.875073C1.73764 1.51882 0.048891 3.40507 0.406391 5.76132C0.656391 7.40632 1.23264 9.49882 2.50389 11.6838C3.55978 13.5059 4.94196 15.1182 6.58139 16.4401C8.44139 17.9338 10.9239 17.4238 12.5364 15.9213C12.9978 15.4917 13.2778 14.9022 13.3194 14.2732C13.361 13.6441 13.161 13.0229 12.7601 12.5363L11.7701 11.3338C11.4534 10.9494 11.0291 10.6684 10.5516 10.5267C10.0741 10.3851 9.56523 10.3893 9.09014 10.5388L7.35389 11.0851C6.9056 10.6229 6.51294 10.1098 6.18389 9.55632C5.86604 8.99677 5.61835 8.4002 5.44639 7.78007V7.77882Z" fill="white"/>
</svg>
